<?xml version="1.0" encoding="UTF-8" standalone="no"?>
<!DOCTYPE svg PUBLIC "-//W3C//DTD SVG 1.1//EN"
 "http://www.w3.org/Graphics/SVG/1.1/DTD/svg11.dtd">
<!-- Generated by graphviz version 2.36.0 (20140111.2315)
 -->
<!-- Title: G Pages: 1 -->
<svg width="1966pt" height="816pt"
 viewBox="0.00 0.00 1966.00 816.00" xmlns="http://www.w3.org/2000/svg" xmlns:xlink="http://www.w3.org/1999/xlink">
<g id="graph0" class="graph" transform="scale(1 1) rotate(0) translate(4 812)">
<title>G</title>
<polygon fill="white" stroke="none" points="-4,4 -4,-812 1962,-812 1962,4 -4,4"/>
<g id="clust1" class="cluster"><title>cluster_Global</title>
<path fill="none" stroke="gray" d="M529,-136C529,-136 1938,-136 1938,-136 1944,-136 1950,-142 1950,-148 1950,-148 1950,-788 1950,-788 1950,-794 1944,-800 1938,-800 1938,-800 529,-800 529,-800 523,-800 517,-794 517,-788 517,-788 517,-148 517,-148 517,-142 523,-136 529,-136"/>
<text text-anchor="middle" x="1233.5" y="-787.2" font-family="Times,serif" font-size="11.00" fill="gray">Global</text>
</g>
<g id="clust2" class="cluster"><title>cluster_\Omnipay</title>
<path fill="none" stroke="gray" d="M537,-144C537,-144 1930,-144 1930,-144 1936,-144 1942,-150 1942,-156 1942,-156 1942,-760 1942,-760 1942,-766 1936,-772 1930,-772 1930,-772 537,-772 537,-772 531,-772 525,-766 525,-760 525,-760 525,-156 525,-156 525,-150 531,-144 537,-144"/>
<text text-anchor="middle" x="1233.5" y="-759.2" font-family="Times,serif" font-size="11.00" fill="gray">Omnipay</text>
</g>
<g id="clust3" class="cluster"><title>cluster_\Omnipay\Epay</title>
<path fill="none" stroke="gray" d="M545,-152C545,-152 1922,-152 1922,-152 1928,-152 1934,-158 1934,-164 1934,-164 1934,-732 1934,-732 1934,-738 1928,-744 1922,-744 1922,-744 545,-744 545,-744 539,-744 533,-738 533,-732 533,-732 533,-164 533,-164 533,-158 539,-152 545,-152"/>
<text text-anchor="middle" x="1233.5" y="-731.2" font-family="Times,serif" font-size="11.00" fill="gray">Epay</text>
</g>
<g id="clust4" class="cluster"><title>cluster_\Omnipay\Epay\Message</title>
<path fill="none" stroke="gray" d="M553,-312C553,-312 1914,-312 1914,-312 1920,-312 1926,-318 1926,-324 1926,-324 1926,-704 1926,-704 1926,-710 1920,-716 1914,-716 1914,-716 553,-716 553,-716 547,-716 541,-710 541,-704 541,-704 541,-324 541,-324 541,-318 547,-312 553,-312"/>
<text text-anchor="middle" x="1233.5" y="-703.2" font-family="Times,serif" font-size="11.00" fill="gray">Message</text>
</g>
<g id="clust5" class="cluster"><title>cluster_\Omnipay\Epay\Message\Authorize</title>
<path fill="none" stroke="gray" d="M1728,-454C1728,-454 1906,-454 1906,-454 1912,-454 1918,-460 1918,-466 1918,-466 1918,-676 1918,-676 1918,-682 1912,-688 1906,-688 1906,-688 1728,-688 1728,-688 1722,-688 1716,-682 1716,-676 1716,-676 1716,-466 1716,-466 1716,-460 1722,-454 1728,-454"/>
<text text-anchor="middle" x="1817" y="-675.2" font-family="Times,serif" font-size="11.00" fill="gray">Authorize</text>
</g>
<g id="clust6" class="cluster"><title>cluster_\Omnipay\Epay\Message\Capture</title>
<path fill="none" stroke="gray" d="M1451,-320C1451,-320 1561,-320 1561,-320 1567,-320 1573,-326 1573,-332 1573,-332 1573,-434 1573,-434 1573,-440 1567,-446 1561,-446 1561,-446 1451,-446 1451,-446 1445,-446 1439,-440 1439,-434 1439,-434 1439,-332 1439,-332 1439,-326 1445,-320 1451,-320"/>
<text text-anchor="middle" x="1506" y="-433.2" font-family="Times,serif" font-size="11.00" fill="gray">Capture</text>
</g>
<g id="clust7" class="cluster"><title>cluster_\Omnipay\Epay\Message\Purchase</title>
<path fill="none" stroke="gray" d="M1020,-454C1020,-454 1592,-454 1592,-454 1598,-454 1604,-460 1604,-466 1604,-466 1604,-622 1604,-622 1604,-628 1598,-634 1592,-634 1592,-634 1020,-634 1020,-634 1014,-634 1008,-628 1008,-622 1008,-622 1008,-466 1008,-466 1008,-460 1014,-454 1020,-454"/>
<text text-anchor="middle" x="1306" y="-621.2" font-family="Times,serif" font-size="11.00" fill="gray">Purchase</text>
</g>
<g id="clust8" class="cluster"><title>cluster_\Omnipay\Epay\Message\Refund</title>
<path fill="none" stroke="gray" d="M1765,-320C1765,-320 1869,-320 1869,-320 1875,-320 1881,-326 1881,-332 1881,-332 1881,-434 1881,-434 1881,-440 1875,-446 1869,-446 1869,-446 1765,-446 1765,-446 1759,-446 1753,-440 1753,-434 1753,-434 1753,-332 1753,-332 1753,-326 1759,-320 1765,-320"/>
<text text-anchor="middle" x="1817" y="-433.2" font-family="Times,serif" font-size="11.00" fill="gray">Refund</text>
</g>
<!-- \\Omnipay\\Epay\\Message\\Authorize\\AuthorizeRequest -->
<g id="node1" class="node"><title>\\Omnipay\\Epay\\Message\\Authorize\\AuthorizeRequest</title>
<polygon fill="none" stroke="black" points="1879.5,-660 1754.5,-660 1754.5,-624 1879.5,-624 1879.5,-660"/>
<text text-anchor="middle" x="1817" y="-639.2" font-family="Courier,monospace" font-size="11.00">AuthorizeRequest</text>
</g>
<!-- \\Omnipay\\Epay\\Message\\Purchase\\PurchaseRequest -->
<g id="node9" class="node"><title>\\Omnipay\\Epay\\Message\\Purchase\\PurchaseRequest</title>
<polygon fill="none" stroke="black" points="1134,-606 1016,-606 1016,-570 1134,-570 1134,-606"/>
<text text-anchor="middle" x="1075" y="-585.2" font-family="Courier,monospace" font-size="11.00">PurchaseRequest</text>
</g>
<!-- \\Omnipay\\Epay\\Message\\Authorize\\AuthorizeRequest&#45;&gt;\\Omnipay\\Epay\\Message\\Purchase\\PurchaseRequest -->
<g id="edge4" class="edge"><title>\\Omnipay\\Epay\\Message\\Authorize\\AuthorizeRequest&#45;&gt;\\Omnipay\\Epay\\Message\\Purchase\\PurchaseRequest</title>
<path fill="none" stroke="black" d="M1754.37,-639.049C1666.69,-634.692 1500.94,-625.869 1360,-615 1286.16,-609.306 1201.7,-601.053 1144.2,-595.172"/>
<polygon fill="none" stroke="black" points="1144.45,-591.679 1134.15,-594.14 1143.74,-598.643 1144.45,-591.679"/>
</g>
<!-- \\Omnipay\\Epay\\Message\\Authorize\\AuthorizeResponse -->
<g id="node2" class="node"><title>\\Omnipay\\Epay\\Message\\Authorize\\AuthorizeResponse</title>
<polygon fill="none" stroke="black" points="1882.5,-498 1751.5,-498 1751.5,-462 1882.5,-462 1882.5,-498"/>
<text text-anchor="middle" x="1817" y="-477.2" font-family="Courier,monospace" font-size="11.00">AuthorizeResponse</text>
</g>
<!-- \\Omnipay\\Epay\\Message\\Purchase\\PurchaseResponse -->
<g id="node10" class="node"><title>\\Omnipay\\Epay\\Message\\Purchase\\PurchaseResponse</title>
<polygon fill="none" stroke="black" points="1568.5,-498 1443.5,-498 1443.5,-462 1568.5,-462 1568.5,-498"/>
<text text-anchor="middle" x="1506" y="-477.2" font-family="Courier,monospace" font-size="11.00">PurchaseResponse</text>
</g>
<!-- \\Omnipay\\Epay\\Message\\Authorize\\AuthorizeResponse&#45;&gt;\\Omnipay\\Epay\\Message\\Purchase\\PurchaseResponse -->
<g id="edge5" class="edge"><title>\\Omnipay\\Epay\\Message\\Authorize\\AuthorizeResponse&#45;&gt;\\Omnipay\\Epay\\Message\\Purchase\\PurchaseResponse</title>
<path fill="none" stroke="black" d="M1751.22,-480C1700.79,-480 1630.83,-480 1578.71,-480"/>
<polygon fill="none" stroke="black" points="1578.53,-476.5 1568.53,-480 1578.53,-483.5 1578.53,-476.5"/>
</g>
<!-- \\Omnipay\\Epay\\Message\\Authorize\\CompleteAuthorizeRequest -->
<g id="node3" class="node"><title>\\Omnipay\\Epay\\Message\\Authorize\\CompleteAuthorizeRequest</title>
<polygon fill="none" stroke="black" points="1906.5,-606 1727.5,-606 1727.5,-570 1906.5,-570 1906.5,-606"/>
<text text-anchor="middle" x="1817" y="-585.2" font-family="Courier,monospace" font-size="11.00">CompleteAuthorizeRequest</text>
</g>
<!-- \\Omnipay\\Epay\\Message\\Purchase\\CompletePurchaseRequest -->
<g id="node7" class="node"><title>\\Omnipay\\Epay\\Message\\Purchase\\CompletePurchaseRequest</title>
<polygon fill="none" stroke="black" points="1592,-606 1420,-606 1420,-570 1592,-570 1592,-606"/>
<text text-anchor="middle" x="1506" y="-585.2" font-family="Courier,monospace" font-size="11.00">CompletePurchaseRequest</text>
</g>
<!-- \\Omnipay\\Epay\\Message\\Authorize\\CompleteAuthorizeRequest&#45;&gt;\\Omnipay\\Epay\\Message\\Purchase\\CompletePurchaseRequest -->
<g id="edge6" class="edge"><title>\\Omnipay\\Epay\\Message\\Authorize\\CompleteAuthorizeRequest&#45;&gt;\\Omnipay\\Epay\\Message\\Purchase\\CompletePurchaseRequest</title>
<path fill="none" stroke="black" d="M1727.45,-588C1688.24,-588 1642.05,-588 1602.11,-588"/>
<polygon fill="none" stroke="black" points="1602.1,-584.5 1592.1,-588 1602.1,-591.5 1602.1,-584.5"/>
</g>
<!-- \\Omnipay\\Epay\\Message\\Authorize\\CompleteAuthorizeResponse -->
<g id="node4" class="node"><title>\\Omnipay\\Epay\\Message\\Authorize\\CompleteAuthorizeResponse</title>
<polygon fill="none" stroke="black" points="1909.5,-552 1724.5,-552 1724.5,-516 1909.5,-516 1909.5,-552"/>
<text text-anchor="middle" x="1817" y="-531.2" font-family="Courier,monospace" font-size="11.00">CompleteAuthorizeResponse</text>
</g>
<!-- \\Omnipay\\Epay\\Message\\Purchase\\CompletePurchaseResponse -->
<g id="node8" class="node"><title>\\Omnipay\\Epay\\Message\\Purchase\\CompletePurchaseResponse</title>
<polygon fill="none" stroke="black" points="1595.5,-552 1416.5,-552 1416.5,-516 1595.5,-516 1595.5,-552"/>
<text text-anchor="middle" x="1506" y="-531.2" font-family="Courier,monospace" font-size="11.00">CompletePurchaseResponse</text>
</g>
<!-- \\Omnipay\\Epay\\Message\\Authorize\\CompleteAuthorizeResponse&#45;&gt;\\Omnipay\\Epay\\Message\\Purchase\\CompletePurchaseResponse -->
<g id="edge7" class="edge"><title>\\Omnipay\\Epay\\Message\\Authorize\\CompleteAuthorizeResponse&#45;&gt;\\Omnipay\\Epay\\Message\\Purchase\\CompletePurchaseResponse</title>
<path fill="none" stroke="black" d="M1724.13,-534C1686.81,-534 1643.63,-534 1605.65,-534"/>
<polygon fill="none" stroke="black" points="1605.6,-530.5 1595.6,-534 1605.6,-537.5 1605.6,-530.5"/>
</g>
<!-- \\Omnipay\\Epay\\Message\\Capture\\CaptureRequest -->
<g id="node5" class="node"><title>\\Omnipay\\Epay\\Message\\Capture\\CaptureRequest</title>
<polygon fill="none" stroke="black" points="1561.5,-418 1450.5,-418 1450.5,-382 1561.5,-382 1561.5,-418"/>
<text text-anchor="middle" x="1506" y="-397.2" font-family="Courier,monospace" font-size="11.00">CaptureRequest</text>
</g>
<!-- \\Omnipay\\Epay\\Message\\Capture\\CaptureRequest&#45;&gt;\\Omnipay\\Epay\\Message\\Purchase\\PurchaseRequest -->
<g id="edge8" class="edge"><title>\\Omnipay\\Epay\\Message\\Capture\\CaptureRequest&#45;&gt;\\Omnipay\\Epay\\Message\\Purchase\\PurchaseRequest</title>
<path fill="none" stroke="black" d="M1450.39,-409.566C1421.19,-416.827 1386.01,-429.234 1360,-450 1312.58,-487.856 1339.43,-533.801 1288,-566 1245.52,-592.596 1188.64,-597.207 1144.5,-595.652"/>
<polygon fill="none" stroke="black" points="1144.58,-592.152 1134.42,-595.184 1144.25,-599.144 1144.58,-592.152"/>
</g>
<!-- \\Omnipay\\Epay\\Message\\Capture\\CaptureResponse -->
<g id="node6" class="node"><title>\\Omnipay\\Epay\\Message\\Capture\\CaptureResponse</title>
<polygon fill="none" stroke="black" points="1565,-364 1447,-364 1447,-328 1565,-328 1565,-364"/>
<text text-anchor="middle" x="1506" y="-343.2" font-family="Courier,monospace" font-size="11.00">CaptureResponse</text>
</g>
<!-- \\Omnipay\\Epay\\Message\\AbstractResponse -->
<g id="node14" class="node"><title>\\Omnipay\\Epay\\Message\\AbstractResponse</title>
<polygon fill="none" stroke="black" points="1137.5,-405 1012.5,-405 1012.5,-369 1137.5,-369 1137.5,-405"/>
<text text-anchor="start" x="1041" y="-390.2" font-family="Courier,monospace" font-size="11.00">«abstract»</text>
<text text-anchor="start" x="1020.5" y="-378.2" font-family="Courier,monospace" font-size="11.00">AbstractResponse</text>
</g>
<!-- \\Omnipay\\Epay\\Message\\Capture\\CaptureResponse&#45;&gt;\\Omnipay\\Epay\\Message\\AbstractResponse -->
<g id="edge9" class="edge"><title>\\Omnipay\\Epay\\Message\\Capture\\CaptureResponse&#45;&gt;\\Omnipay\\Epay\\Message\\AbstractResponse</title>
<path fill="none" stroke="black" d="M1446.7,-351.572C1368.99,-358.999 1231.53,-372.136 1147.61,-380.156"/>
<polygon fill="none" stroke="black" points="1147.27,-376.673 1137.65,-381.108 1147.94,-383.641 1147.27,-376.673"/>
</g>
<!-- \\Omnipay\\Epay\\Message\\Purchase\\CompletePurchaseRequest&#45;&gt;\\Omnipay\\Epay\\Message\\Purchase\\PurchaseRequest -->
<g id="edge10" class="edge"><title>\\Omnipay\\Epay\\Message\\Purchase\\CompletePurchaseRequest&#45;&gt;\\Omnipay\\Epay\\Message\\Purchase\\PurchaseRequest</title>
<path fill="none" stroke="black" d="M1419.99,-588C1339.15,-588 1219.1,-588 1144.3,-588"/>
<polygon fill="none" stroke="black" points="1144.06,-584.5 1134.06,-588 1144.06,-591.5 1144.06,-584.5"/>
</g>
<!-- \\Omnipay\\Common\\Message\\AbstractResponse -->
<g id="node20" class="node"><title>\\Omnipay\\Common\\Message\\AbstractResponse</title>
<ellipse fill="none" stroke="black" cx="608" cy="-110" rx="181.968" ry="18"/>
<text text-anchor="middle" x="608" y="-106.3" font-family="Times,serif" font-size="14.00" fill="gray">\Omnipay\Common\Message\AbstractResponse</text>
</g>
<!-- \\Omnipay\\Epay\\Message\\Purchase\\CompletePurchaseResponse&#45;&gt;\\Omnipay\\Common\\Message\\AbstractResponse -->
<g id="edge11" class="edge"><title>\\Omnipay\\Epay\\Message\\Purchase\\CompletePurchaseResponse&#45;&gt;\\Omnipay\\Common\\Message\\AbstractResponse</title>
<path fill="none" stroke="black" d="M1416.27,-530.907C1396.22,-526.731 1376.13,-519.421 1360,-507 1300.78,-461.39 1349.81,-397.034 1288,-355 1209.92,-301.902 1162.47,-378.942 1076,-341"/>
</g>
<!-- \\Omnipay\\Epay\\Message\\AbstractRequest -->
<g id="node13" class="node"><title>\\Omnipay\\Epay\\Message\\AbstractRequest</title>
<polygon fill="none" stroke="black" points="667,-606 549,-606 549,-570 667,-570 667,-606"/>
<text text-anchor="start" x="574" y="-591.2" font-family="Courier,monospace" font-size="11.00">«abstract»</text>
<text text-anchor="start" x="557" y="-579.2" font-family="Courier,monospace" font-size="11.00">AbstractRequest</text>
</g>
<!-- \\Omnipay\\Epay\\Message\\Purchase\\PurchaseRequest&#45;&gt;\\Omnipay\\Epay\\Message\\AbstractRequest -->
<g id="edge12" class="edge"><title>\\Omnipay\\Epay\\Message\\Purchase\\PurchaseRequest&#45;&gt;\\Omnipay\\Epay\\Message\\AbstractRequest</title>
<path fill="none" stroke="black" d="M1015.58,-588C929.497,-588 768.925,-588 677.444,-588"/>
<polygon fill="none" stroke="black" points="677.183,-584.5 667.183,-588 677.183,-591.5 677.183,-584.5"/>
</g>
<!-- \\Omnipay\\Epay\\Message\\Purchase\\PurchaseResponse&#45;&gt;\\Omnipay\\Common\\Message\\AbstractResponse -->
<g id="edge13" class="edge"><title>\\Omnipay\\Epay\\Message\\Purchase\\PurchaseResponse&#45;&gt;\\Omnipay\\Common\\Message\\AbstractResponse</title>
<path fill="none" stroke="black" d="M1443.17,-476.941C1415.97,-473.238 1384.67,-465.576 1360,-450 1315.2,-421.718 1334.64,-380.125 1288,-355 1204.87,-310.219 1162.47,-378.942 1076,-341"/>
<path fill="none" stroke="black" d="M1074,-341C914.838,-271.16 731.639,-175.479 650.906,-132.504"/>
<polygon fill="none" stroke="black" points="652.506,-129.391 642.036,-127.775 649.213,-135.568 652.506,-129.391"/>
</g>
<!-- \\Omnipay\\Common\\Message\\RedirectResponseInterface -->
<g id="node21" class="node"><title>\\Omnipay\\Common\\Message\\RedirectResponseInterface</title>
<ellipse fill="none" stroke="black" cx="1075" cy="-110" rx="213.362" ry="18"/>
<text text-anchor="middle" x="1075" y="-106.3" font-family="Times,serif" font-size="14.00" fill="gray">\Omnipay\Common\Message\RedirectResponseInterface</text>
</g>
<!-- \\Omnipay\\Epay\\Message\\Purchase\\PurchaseResponse&#45;&gt;\\Omnipay\\Common\\Message\\RedirectResponseInterface -->
<g id="edge14" class="edge"><title>\\Omnipay\\Epay\\Message\\Purchase\\PurchaseResponse&#45;&gt;\\Omnipay\\Common\\Message\\RedirectResponseInterface</title>
<path fill="none" stroke="black" stroke-dasharray="1,5" d="M1443.35,-478.412C1415.72,-475.045 1384.02,-467.24 1360,-450 1308.54,-413.06 1326.42,-377.363 1288,-327 1229.81,-250.719 1147.09,-173.123 1104.21,-134.706"/>
<polygon fill="none" stroke="black" points="1106.48,-132.038 1096.69,-127.998 1101.82,-137.264 1106.48,-132.038"/>
</g>
<!-- \\Omnipay\\Epay\\Message\\Refund\\RefundRequest -->
<g id="node11" class="node"><title>\\Omnipay\\Epay\\Message\\Refund\\RefundRequest</title>
<polygon fill="none" stroke="black" points="1869,-418 1765,-418 1765,-382 1869,-382 1869,-418"/>
<text text-anchor="middle" x="1817" y="-397.2" font-family="Courier,monospace" font-size="11.00">RefundRequest</text>
</g>
<!-- \\Omnipay\\Epay\\Message\\Refund\\RefundRequest&#45;&gt;\\Omnipay\\Epay\\Message\\Capture\\CaptureRequest -->
<g id="edge15" class="edge"><title>\\Omnipay\\Epay\\Message\\Refund\\RefundRequest&#45;&gt;\\Omnipay\\Epay\\Message\\Capture\\CaptureRequest</title>
<path fill="none" stroke="black" d="M1764.97,-400C1712.1,-400 1629.29,-400 1571.82,-400"/>
<polygon fill="none" stroke="black" points="1571.75,-396.5 1561.75,-400 1571.75,-403.5 1571.75,-396.5"/>
</g>
<!-- \\Omnipay\\Epay\\Message\\Refund\\RefundResponse -->
<g id="node12" class="node"><title>\\Omnipay\\Epay\\Message\\Refund\\RefundResponse</title>
<polygon fill="none" stroke="black" points="1872.5,-364 1761.5,-364 1761.5,-328 1872.5,-328 1872.5,-364"/>
<text text-anchor="middle" x="1817" y="-343.2" font-family="Courier,monospace" font-size="11.00">RefundResponse</text>
</g>
<!-- \\Omnipay\\Epay\\Message\\Refund\\RefundResponse&#45;&gt;\\Omnipay\\Common\\Message\\AbstractResponse -->
<g id="edge16" class="edge"><title>\\Omnipay\\Epay\\Message\\Refund\\RefundResponse&#45;&gt;\\Omnipay\\Common\\Message\\AbstractResponse</title>
<path fill="none" stroke="black" d="M1761.43,-337.05C1746.44,-333.774 1730.37,-329.484 1716,-324 1512.05,-246.139 1499.17,-138.366 1288,-83 1078.63,-28.1051 820.606,-65.7624 691.207,-91.507"/>
<polygon fill="none" stroke="black" points="690.47,-88.0852 681.359,-93.493 691.854,-94.947 690.47,-88.0852"/>
</g>
<!-- \\Omnipay\\Common\\Message\\AbstractRequest -->
<g id="node19" class="node"><title>\\Omnipay\\Common\\Message\\AbstractRequest</title>
<ellipse fill="none" stroke="black" cx="177" cy="-588" rx="176.569" ry="18"/>
<text text-anchor="middle" x="177" y="-584.3" font-family="Times,serif" font-size="14.00" fill="gray">\Omnipay\Common\Message\AbstractRequest</text>
</g>
<!-- \\Omnipay\\Epay\\Message\\AbstractRequest&#45;&gt;\\Omnipay\\Common\\Message\\AbstractRequest -->
<g id="edge2" class="edge"><title>\\Omnipay\\Epay\\Message\\AbstractRequest&#45;&gt;\\Omnipay\\Common\\Message\\AbstractRequest</title>
<path fill="none" stroke="black" d="M548.697,-588C500.975,-588 430.724,-588 364.175,-588"/>
<polygon fill="none" stroke="black" points="363.96,-584.5 353.96,-588 363.96,-591.5 363.96,-584.5"/>
</g>
<!-- \\Omnipay\\Epay\\Message\\AbstractResponse&#45;&gt;\\Omnipay\\Common\\Message\\AbstractResponse -->
<g id="edge3" class="edge"><title>\\Omnipay\\Epay\\Message\\AbstractResponse&#45;&gt;\\Omnipay\\Common\\Message\\AbstractResponse</title>
<path fill="none" stroke="black" d="M1012.1,-387.502C968.151,-385.571 908.871,-378.197 862,-355 807.046,-327.802 682.906,-192.837 631.721,-135.662"/>
<polygon fill="none" stroke="black" points="634.268,-133.26 624.997,-128.13 629.046,-137.921 634.268,-133.26"/>
</g>
<!-- \\Omnipay\\Epay\\Gateway -->
<g id="node15" class="node"><title>\\Omnipay\\Epay\\Gateway</title>
<polygon fill="none" stroke="black" points="1849,-304 1785,-304 1785,-268 1849,-268 1849,-304"/>
<text text-anchor="middle" x="1817" y="-283.2" font-family="Courier,monospace" font-size="11.00">Gateway</text>
</g>
<!-- \\Omnipay\\Common\\AbstractGateway -->
<g id="node18" class="node"><title>\\Omnipay\\Common\\AbstractGateway</title>
<ellipse fill="none" stroke="black" cx="1506" cy="-18" rx="145.674" ry="18"/>
<text text-anchor="middle" x="1506" y="-14.3" font-family="Times,serif" font-size="14.00" fill="gray">\Omnipay\Common\AbstractGateway</text>
</g>
<!-- \\Omnipay\\Epay\\Gateway&#45;&gt;\\Omnipay\\Common\\AbstractGateway -->
<g id="edge1" class="edge"><title>\\Omnipay\\Epay\\Gateway&#45;&gt;\\Omnipay\\Common\\AbstractGateway</title>
<path fill="none" stroke="black" d="M1784.63,-285.221C1762.71,-283.027 1734.23,-276.627 1716,-259 1646.17,-191.465 1723.38,-115.893 1652,-50 1644.83,-43.3814 1636.61,-38.0204 1627.81,-33.6899"/>
<polygon fill="none" stroke="black" points="1629,-30.3918 1618.44,-29.5405 1626.17,-36.7917 1629,-30.3918"/>
</g>
<!-- \\Omnipay\\Epay\\Settings -->
<g id="node16" class="node"><title>\\Omnipay\\Epay\\Settings</title>
<polygon fill="none" stroke="black" points="1852.5,-250 1781.5,-250 1781.5,-214 1852.5,-214 1852.5,-250"/>
<text text-anchor="middle" x="1817" y="-229.2" font-family="Courier,monospace" font-size="11.00">Settings</text>
</g>
<!-- \\Omnipay\\Epay\\SoapClient -->
<g id="node17" class="node"><title>\\Omnipay\\Epay\\SoapClient</title>
<polygon fill="none" stroke="black" points="1859,-196 1775,-196 1775,-160 1859,-160 1859,-196"/>
<text text-anchor="middle" x="1817" y="-175.2" font-family="Courier,monospace" font-size="11.00">SoapClient</text>
</g>
</g>
</svg>
